Coordinates
version=1
nRows=14
nColumns=40
inDegrees=yes

Units are S.I. units (second, meters, Newtons, ...)
If the header above contains a line with 'inDegrees', this indicates whether rotational values are in degrees (yes) or radians (no).

endheader
time	pelvis_tilt	pelvis_list	pelvis_rotation	pelvis_tx	pelvis_ty	pelvis_tz	hip_flexion_r	hip_adduction_r	hip_rotation_r	knee_angle_r	knee_angle_r_beta	ankle_angle_r	subtalar_angle_r	mtp_angle_r	hip_flexion_l	hip_adduction_l	hip_rotation_l	knee_angle_l	knee_angle_l_beta	ankle_angle_l	subtalar_angle_l	mtp_angle_l	lumbar_extension	lumbar_bending	lumbar_rotation	arm_flex_r	arm_add_r	arm_rot_r	elbow_flex_r	pro_sup_r	wrist_flex_r	wrist_dev_r	arm_flex_l	arm_add_l	arm_rot_l	elbow_flex_l	pro_sup_l	wrist_flex_l	wrist_dev_l
      5.44000000	     48.20806774	      0.33788938	   -177.75240867	      0.42847289	      0.76297071	     -0.61120206	     85.77617933	    -12.02849290	    -10.87814321	     37.74335745	      0.65874586	      1.16848243	      0.00000000	      0.00000000	     84.88797653	     -5.91431923	     -4.71802996	     33.80601337	      0.59002624	     -2.54189452	      0.00000000	      0.00000000	    -27.44412101	      6.78392463	      5.20124545	     63.97932450	    -14.71891759	     55.80610519	      1.81924779	     88.01413951	      0.00000000	      0.00000000	     51.69783960	      0.55028310	     59.67140401	      0.56234250	      2.49215128	      0.00000000	      0.00000000
      5.44500000	     48.12892134	      0.26428895	   -177.76339484	      0.42811394	      0.76424289	     -0.61107539	     85.43193675	    -11.96709922	    -10.82825524	     37.27359469	      0.65054695	      0.96901754	      0.00000000	      0.00000000	     84.51738962	     -5.88165596	     -4.86406554	     33.36962886	      0.58240989	     -2.74307346	      0.00000000	      0.00000000	    -27.38412515	      6.72694342	      5.17326133	     63.75326141	    -14.74751227	     56.02919942	      1.82438399	     87.99869541	      0.00000000	      0.00000000	     51.46216088	      0.51176718	     60.12048786	      0.56135504	      2.48727688	      0.00000000	      0.00000000
      5.45000000	     48.08060057	      0.28144606	   -177.72968504	      0.42784455	      0.76545522	     -0.61087071	     85.12123743	    -11.97249189	    -10.95171161	     36.85897062	      0.64331040	      0.77103786	      0.00000000	      0.00000000	     84.21617932	     -5.83038825	     -4.94631426	     32.95676935	      0.57520414	     -2.95174837	      0.00000000	      0.00000000	    -27.27911478	      6.78001443	      5.16948460	     63.54377450	    -14.80281505	     56.13933229	      1.82765704	     88.01306939	      0.00000000	      0.00000000	     51.18254198	      0.47256686	     60.95413910	      0.56020812	      2.46798804	      0.00000000	      0.00000000
      5.45500000	     47.94554397	      0.19117514	   -177.72706302	      0.42738439	      0.76674583	     -0.61070564	     84.76950183	    -11.98549171	    -10.99640939	     36.51434017	      0.63729546	      0.65175649	      0.00000000	      0.00000000	     83.79251985	     -5.79677577	     -5.16095664	     32.56204392	      0.56831488	     -3.03818493	      0.00000000	      0.00000000	    -27.27757188	      6.71512718	      5.11146444	     63.34116652	    -14.81204302	     56.34836529	      1.82263715	     88.00474651	      0.00000000	      0.00000000	     51.00334399	      0.44389105	     61.05546605	      0.55980905	      2.47775168	      0.00000000	      0.00000000
      5.46000000	     47.93506179	      0.36114973	   -177.75888534	      0.42720224	      0.76779931	     -0.61079963	     84.43313405	    -11.82152249	    -11.12747158	     36.02251111	      0.62871142	      0.46906011	      0.00000000	      0.00000000	     83.59082368	     -5.83662948	     -4.97449500	     32.19079343	      0.56183533	     -3.30929254	      0.00000000	      0.00000000	    -27.11287507	      6.87518214	      5.23711986	     63.09568612	    -14.86351748	     56.38772320	      1.83962979	     87.99332467	      0.00000000	      0.00000000	     50.63460991	      0.35823119	     62.49935959	      0.55641689	      2.45313587	      0.00000000	      0.00000000
      5.46500000	     47.90379953	      0.32121400	   -177.75564773	      0.42695123	      0.76890102	     -0.61067274	     84.18499480	    -11.81930024	    -11.21878275	     35.65120797	      0.62223096	      0.23882749	      0.00000000	      0.00000000	     83.29857620	     -5.79550790	     -5.07449959	     31.77217251	      0.55452902	     -3.45537748	      0.00000000	      0.00000000	    -26.96472652	      6.85374237	      5.23031629	     62.85842546	    -14.89651428	     56.44589056	      1.83326164	     87.99523688	      0.00000000	      0.00000000	     50.36779070	      0.31641081	     63.10726421	      0.55654991	      2.46454343	      0.00000000	      0.00000000
      5.47000000	     47.80357957	      0.47038400	   -177.64643914	      0.42662681	      0.77015071	     -0.61045078	     83.78467025	    -11.85804405	    -11.44766769	     35.25593140	      0.61533208	      0.13026616	      0.00000000	      0.00000000	     82.96824682	     -5.69929510	     -4.98467565	     31.33892162	      0.54696737	     -3.70219711	      0.00000000	      0.00000000	    -26.89627330	      7.07177522	      5.19234394	     62.66072254	    -14.93941668	     57.04597825	      1.81937292	     87.96726746	      0.00000000	      0.00000000	     50.07985861	      0.24730265	     64.02749599	      0.55226233	      2.43829205	      0.00000000	      0.00000000
      5.47500000	     47.69865520	      0.47378773	   -177.83749935	      0.42623185	      0.77129515	     -0.61079693	     83.39017510	    -11.55412154	    -11.36791453	     34.75971650	      0.60667150	      0.03949651	      0.00000000	      0.00000000	     82.67251541	     -5.91742897	     -5.15495516	     31.09160614	      0.54265090	     -3.78092600	      0.00000000	      0.00000000	    -26.85775978	      6.99234978	      5.36215784	     62.43747658	    -14.96211126	     57.03425431	      1.81407986	     87.93420624	      0.00000000	      0.00000000	     49.93120009	      0.23893024	     63.90224597	      0.55277411	      2.49136157	      0.00000000	      0.00000000
      5.48000000	     47.65520594	      0.38818049	   -177.82499816	      0.42592821	      0.77237408	     -0.61066043	     83.14802605	    -11.57852770	    -11.45484735	     34.41574282	      0.60066803	     -0.21454750	      0.00000000	      0.00000000	     82.33689865	     -5.83198698	     -5.26714702	     30.60828063	      0.53421528	     -4.11625554	      0.00000000	      0.00000000	    -26.70817464	      6.97982835	      5.32563270	     62.19632193	    -14.95796667	     57.14482014	      1.77522440	     87.93215317	      0.00000000	      0.00000000	     49.49632141	      0.07616141	     65.52535417	      0.55404140	      2.45926123	      0.00000000	      0.00000000
      5.48500000	     47.60321066	      0.40244122	   -177.82279302	      0.42570251	      0.77337805	     -0.61055328	     82.86682161	    -11.54068326	    -11.51828758	     34.03741778	      0.59406501	     -0.39609189	      0.00000000	      0.00000000	     82.07399299	     -5.78475110	     -5.21014751	     30.26163195	      0.52816511	     -4.23917489	      0.00000000	      0.00000000	    -26.54445694	      6.95175932	      5.37175823	     61.91259703	    -15.03277566	     57.30968175	      1.78951508	     87.95029112	      0.00000000	      0.00000000	     49.25503939	      0.06257719	     66.28403925	      0.55164057	      2.47117809	      0.00000000	      0.00000000
      5.49000000	     47.51805418	      0.35900298	   -177.83023715	      0.42538921	      0.77440459	     -0.61043851	     82.57875361	    -11.48786368	    -11.46870309	     33.67417893	      0.58772530	     -0.55428159	      0.00000000	      0.00000000	     81.74132348	     -5.75953244	     -5.31541526	     29.87457660	      0.52140972	     -4.36117478	      0.00000000	      0.00000000	    -26.42850670	      6.97600447	      5.29560488	     61.71339658	    -14.97235985	     57.85729933	      1.75056771	     87.93331234	      0.00000000	      0.00000000	     48.93640145	     -0.04921739	     66.86831466	      0.55182801	      2.44253850	      0.00000000	      0.00000000
      5.49500000	     47.36960761	      0.55573796	   -177.72554215	      0.42494670	      0.77552966	     -0.61025421	     82.17473044	    -11.55072642	    -11.86863461	     33.39285860	      0.58281533	     -0.66641068	      0.00000000	      0.00000000	     81.41745352	     -5.67537056	     -5.11390215	     29.53515406	      0.51548568	     -4.55586589	      0.00000000	      0.00000000	    -26.37085547	      7.23695144	      5.31089863	     61.47717746	    -15.05075681	     57.99759768	      1.74892837	     87.91617955	      0.00000000	      0.00000000	     48.66046247	     -0.05836487	     67.46411428	      0.55133969	      2.40835614	      0.00000000	      0.00000000
      5.50000000	     47.21759107	      0.85613576	   -177.75583552	      0.42453804	      0.77667835	     -0.61044365	     81.67166271	    -11.38149610	    -12.28419397	     32.96104569	      0.57527877	     -0.76916147	      0.00000000	      0.00000000	     81.17882468	     -5.80411950	     -4.91371124	     29.33284920	      0.51195480	     -4.72998891	      0.00000000	      0.00000000	    -26.33434044	      7.53203110	      5.45566871	     61.26130345	    -15.05741224	     58.26691964	      1.71569603	     87.88828299	      0.00000000	      0.00000000	     48.41092730	     -0.10135469	     67.86521477	      0.54895661	      2.44286574	      0.00000000	      0.00000000
      5.50500000	     47.21083072	      0.70103667	   -177.69810178	      0.42434352	      0.77758907	     -0.60999830	     81.53499783	    -11.48254769	    -12.20413402	     32.68950909	      0.57053956	     -0.99116249	      0.00000000	      0.00000000	     80.89827528	     -5.63633669	     -5.05946371	     28.91724658	      0.50470116	     -4.93661542	      0.00000000	      0.00000000	    -26.09661073	      7.39130150	      5.24383295	     60.99355951	    -15.01982706	     58.83152718	      1.71818184	     87.89002326	      0.00000000	      0.00000000	     48.55972580	      0.16995269	     64.60766706	      0.55648028	      2.46556312	      0.00000000	      0.00000000
